<mxfile host="app.diagrams.net" modified="2023-05-03T02:56:33.867Z" agent="Mozilla/5.0 (Macintosh; Intel Mac OS X 10_15_7) AppleWebKit/537.36 (KHTML, like Gecko) Chrome/112.0.0.0 Safari/537.36" etag="ogWD8rvoiSvhalVlj82G" version="21.2.4" type="github">
  <diagram name="Page-1" id="13e1069c-82ec-6db2-03f1-153e76fe0fe0">
    <mxGraphModel dx="3530" dy="1012" grid="1" gridSize="10" guides="1" tooltips="1" connect="1" arrows="1" fold="1" page="1" pageScale="1" pageWidth="1100" pageHeight="850" background="none" math="0" shadow="0">
      <root>
        <mxCell id="0" />
        <mxCell id="1" parent="0" />
        <mxCell id="7baba1c4bc27f4b0-2" value=":Jenkins Old" style="shape=umlLifeline;perimeter=lifelinePerimeter;whiteSpace=wrap;html=1;container=1;collapsible=0;recursiveResize=0;outlineConnect=0;rounded=1;shadow=0;comic=0;labelBackgroundColor=none;strokeWidth=1;fontFamily=Verdana;fontSize=12;align=center;fillColor=#FAE5C7;strokeColor=#0F8B8D;fontColor=#143642;" parent="1" vertex="1">
          <mxGeometry x="-700" y="185" width="100" height="580" as="geometry" />
        </mxCell>
        <mxCell id="7baba1c4bc27f4b0-10" value="" style="html=1;points=[];perimeter=orthogonalPerimeter;rounded=1;shadow=0;comic=0;labelBackgroundColor=none;strokeWidth=1;fontFamily=Verdana;fontSize=12;align=center;fillColor=#FAE5C7;strokeColor=#0F8B8D;fontColor=#143642;" parent="7baba1c4bc27f4b0-2" vertex="1">
          <mxGeometry x="45" y="120" width="10" height="110" as="geometry" />
        </mxCell>
        <mxCell id="8oz6WlwGEbHMc_Zp1zbU-1" value="" style="html=1;points=[];perimeter=orthogonalPerimeter;rounded=1;shadow=0;comic=0;labelBackgroundColor=none;strokeWidth=1;fontFamily=Verdana;fontSize=12;align=center;fillColor=#FAE5C7;strokeColor=#0F8B8D;fontColor=#143642;" vertex="1" parent="7baba1c4bc27f4b0-2">
          <mxGeometry x="51" y="142" width="10" height="40" as="geometry" />
        </mxCell>
        <mxCell id="7baba1c4bc27f4b0-3" value=":Jenkins &lt;br&gt;s3 backup" style="shape=umlLifeline;perimeter=lifelinePerimeter;whiteSpace=wrap;html=1;container=1;collapsible=0;recursiveResize=0;outlineConnect=0;rounded=1;shadow=0;comic=0;labelBackgroundColor=none;strokeWidth=1;fontFamily=Verdana;fontSize=12;align=center;fillColor=#FAE5C7;strokeColor=#0F8B8D;fontColor=#143642;" parent="1" vertex="1">
          <mxGeometry x="-540" y="185" width="100" height="580" as="geometry" />
        </mxCell>
        <mxCell id="7baba1c4bc27f4b0-13" value="" style="html=1;points=[];perimeter=orthogonalPerimeter;rounded=1;shadow=0;comic=0;labelBackgroundColor=none;strokeWidth=1;fontFamily=Verdana;fontSize=12;align=center;fillColor=#FAE5C7;strokeColor=#0F8B8D;fontColor=#143642;" parent="7baba1c4bc27f4b0-3" vertex="1">
          <mxGeometry x="45" y="150" width="10" height="70" as="geometry" />
        </mxCell>
        <mxCell id="davq9KQGrm66WCmQLP24-36" value="" style="html=1;points=[];perimeter=orthogonalPerimeter;rounded=1;shadow=0;comic=0;labelBackgroundColor=none;strokeWidth=1;fontFamily=Verdana;fontSize=12;align=center;fillColor=#FAE5C7;strokeColor=#0F8B8D;fontColor=#143642;" parent="7baba1c4bc27f4b0-3" vertex="1">
          <mxGeometry x="50" y="165" width="10" height="40" as="geometry" />
        </mxCell>
        <mxCell id="7baba1c4bc27f4b0-4" value=":Jenkins &lt;br&gt;new" style="shape=umlLifeline;perimeter=lifelinePerimeter;whiteSpace=wrap;html=1;container=1;collapsible=0;recursiveResize=0;outlineConnect=0;rounded=1;shadow=0;comic=0;labelBackgroundColor=none;strokeWidth=1;fontFamily=Verdana;fontSize=12;align=center;fillColor=#FAE5C7;strokeColor=#0F8B8D;fontColor=#143642;" parent="1" vertex="1">
          <mxGeometry x="-400" y="185" width="100" height="580" as="geometry" />
        </mxCell>
        <mxCell id="davq9KQGrm66WCmQLP24-13" value="" style="html=1;points=[];perimeter=orthogonalPerimeter;rounded=1;shadow=0;comic=0;labelBackgroundColor=none;strokeWidth=1;fontFamily=Verdana;fontSize=12;align=center;fillColor=#FAE5C7;strokeColor=#0F8B8D;fontColor=#143642;" parent="7baba1c4bc27f4b0-4" vertex="1">
          <mxGeometry x="43" y="299" width="10" height="131" as="geometry" />
        </mxCell>
        <mxCell id="davq9KQGrm66WCmQLP24-19" value="" style="html=1;points=[];perimeter=orthogonalPerimeter;rounded=1;shadow=0;comic=0;labelBackgroundColor=none;strokeWidth=1;fontFamily=Verdana;fontSize=12;align=center;fillColor=#FAE5C7;strokeColor=#0F8B8D;fontColor=#143642;" parent="7baba1c4bc27f4b0-4" vertex="1">
          <mxGeometry x="45" y="338" width="10" height="47" as="geometry" />
        </mxCell>
        <mxCell id="davq9KQGrm66WCmQLP24-20" value="restore from s3 backup" style="html=1;verticalAlign=bottom;endArrow=block;labelBackgroundColor=none;fontFamily=Verdana;fontSize=12;elbow=vertical;edgeStyle=orthogonalEdgeStyle;curved=1;entryX=1;entryY=0.286;entryPerimeter=0;exitX=1.038;exitY=0.345;exitPerimeter=0;strokeColor=#A8201A;fontColor=default;" parent="7baba1c4bc27f4b0-4" edge="1">
          <mxGeometry x="-0.2339" y="14" relative="1" as="geometry">
            <mxPoint x="53.30333333333351" y="325.03" as="sourcePoint" />
            <mxPoint x="58.30333333333351" y="363.36333333333334" as="targetPoint" />
            <Array as="points">
              <mxPoint x="107.97000000000003" y="325.03" />
              <mxPoint x="107.97000000000003" y="363.03" />
            </Array>
            <mxPoint as="offset" />
          </mxGeometry>
        </mxCell>
        <mxCell id="8oz6WlwGEbHMc_Zp1zbU-4" value="migrate done" style="html=1;verticalAlign=bottom;endArrow=open;dashed=1;endSize=8;labelBackgroundColor=none;fontFamily=Verdana;fontSize=12;edgeStyle=elbowEdgeStyle;elbow=vertical;strokeColor=#A8201A;fontColor=default;" edge="1" parent="7baba1c4bc27f4b0-4" target="7baba1c4bc27f4b0-8">
          <mxGeometry relative="1" as="geometry">
            <mxPoint x="-240" y="505" as="targetPoint" />
            <Array as="points">
              <mxPoint x="5" y="505" />
              <mxPoint x="-35" y="561" />
            </Array>
            <mxPoint x="185" y="505" as="sourcePoint" />
          </mxGeometry>
        </mxCell>
        <mxCell id="7baba1c4bc27f4b0-5" value=":Jenkins new verify" style="shape=umlLifeline;perimeter=lifelinePerimeter;whiteSpace=wrap;html=1;container=1;collapsible=0;recursiveResize=0;outlineConnect=0;rounded=1;shadow=0;comic=0;labelBackgroundColor=none;strokeWidth=1;fontFamily=Verdana;fontSize=12;align=center;fillColor=#FAE5C7;strokeColor=#0F8B8D;fontColor=#143642;" parent="1" vertex="1">
          <mxGeometry x="-260" y="185" width="100" height="580" as="geometry" />
        </mxCell>
        <mxCell id="7baba1c4bc27f4b0-19" value="" style="html=1;points=[];perimeter=orthogonalPerimeter;rounded=1;shadow=0;comic=0;labelBackgroundColor=none;strokeWidth=1;fontFamily=Verdana;fontSize=12;align=center;fillColor=#FAE5C7;strokeColor=#0F8B8D;fontColor=#143642;" parent="7baba1c4bc27f4b0-5" vertex="1">
          <mxGeometry x="45" y="418" width="10" height="102" as="geometry" />
        </mxCell>
        <mxCell id="bYO_PEtmY-TjLPmkm5Tr-8" value="" style="html=1;points=[];perimeter=orthogonalPerimeter;rounded=1;shadow=0;comic=0;labelBackgroundColor=none;strokeColor=#0F8B8D;strokeWidth=1;fillColor=#FAE5C7;fontFamily=Verdana;fontSize=12;fontColor=#143642;align=center;" parent="7baba1c4bc27f4b0-5" vertex="1">
          <mxGeometry x="51" y="461" width="10" height="26" as="geometry" />
        </mxCell>
        <mxCell id="7baba1c4bc27f4b0-6" value=":DNS switch" style="shape=umlLifeline;perimeter=lifelinePerimeter;whiteSpace=wrap;html=1;container=1;collapsible=0;recursiveResize=0;outlineConnect=0;rounded=1;shadow=0;comic=0;labelBackgroundColor=none;strokeWidth=1;fontFamily=Verdana;fontSize=12;align=center;fillColor=#FAE5C7;strokeColor=#0F8B8D;fontColor=#143642;" parent="1" vertex="1">
          <mxGeometry x="-120" y="185" width="100" height="580" as="geometry" />
        </mxCell>
        <mxCell id="davq9KQGrm66WCmQLP24-25" value="" style="html=1;points=[];perimeter=orthogonalPerimeter;rounded=1;shadow=0;comic=0;labelBackgroundColor=none;strokeColor=#0F8B8D;strokeWidth=1;fillColor=#FAE5C7;fontFamily=Verdana;fontSize=12;fontColor=#143642;align=center;" parent="7baba1c4bc27f4b0-6" vertex="1">
          <mxGeometry x="45" y="418" width="10" height="26" as="geometry" />
        </mxCell>
        <mxCell id="7baba1c4bc27f4b0-8" value=":Frontend" style="shape=umlLifeline;perimeter=lifelinePerimeter;whiteSpace=wrap;html=1;container=1;collapsible=0;recursiveResize=0;outlineConnect=0;rounded=1;shadow=0;comic=0;labelBackgroundColor=none;strokeWidth=1;fontFamily=Verdana;fontSize=12;align=center;fillColor=#FAE5C7;strokeColor=#0F8B8D;fontColor=#143642;" parent="1" vertex="1">
          <mxGeometry x="-840" y="185" width="100" height="580" as="geometry" />
        </mxCell>
        <mxCell id="7baba1c4bc27f4b0-9" value="" style="html=1;points=[];perimeter=orthogonalPerimeter;rounded=1;shadow=0;comic=0;labelBackgroundColor=none;strokeWidth=1;fontFamily=Verdana;fontSize=12;align=center;fillColor=#FAE5C7;strokeColor=#0F8B8D;fontColor=#143642;" parent="7baba1c4bc27f4b0-8" vertex="1">
          <mxGeometry x="45" y="100" width="10" height="440" as="geometry" />
        </mxCell>
        <mxCell id="davq9KQGrm66WCmQLP24-11" value="" style="html=1;points=[];perimeter=orthogonalPerimeter;rounded=1;shadow=0;comic=0;labelBackgroundColor=none;strokeWidth=1;fontFamily=Verdana;fontSize=12;align=center;fillColor=#FAE5C7;strokeColor=#0F8B8D;fontColor=#143642;" parent="7baba1c4bc27f4b0-8" vertex="1">
          <mxGeometry x="50" y="252" width="10" height="70" as="geometry" />
        </mxCell>
        <mxCell id="davq9KQGrm66WCmQLP24-33" value="return" style="html=1;verticalAlign=bottom;endArrow=open;dashed=1;endSize=8;exitX=-0.24;exitY=0.722;labelBackgroundColor=none;fontFamily=Verdana;fontSize=12;strokeColor=#A8201A;fontColor=default;exitDx=0;exitDy=0;exitPerimeter=0;entryX=1.06;entryY=0.914;entryDx=0;entryDy=0;entryPerimeter=0;" parent="7baba1c4bc27f4b0-8" edge="1">
          <mxGeometry relative="1" as="geometry">
            <mxPoint x="-109.40000000000009" y="518.5799999999999" as="targetPoint" />
            <mxPoint x="44.999999999999915" y="519" as="sourcePoint" />
            <mxPoint as="offset" />
          </mxGeometry>
        </mxCell>
        <mxCell id="davq9KQGrm66WCmQLP24-39" value="" style="shape=image;html=1;verticalAlign=top;verticalLabelPosition=bottom;labelBackgroundColor=#ffffff;imageAspect=0;aspect=fixed;image=https://cdn0.iconfinder.com/data/icons/business-startup-10/50/8-128.png" parent="7baba1c4bc27f4b0-8" vertex="1">
          <mxGeometry x="55" y="62" width="38" height="38" as="geometry" />
        </mxCell>
        <mxCell id="bYO_PEtmY-TjLPmkm5Tr-2" value="" style="html=1;points=[];perimeter=orthogonalPerimeter;rounded=1;shadow=0;comic=0;labelBackgroundColor=none;strokeColor=#0F8B8D;strokeWidth=1;fillColor=#FAE5C7;fontFamily=Verdana;fontSize=12;fontColor=#143642;align=center;" parent="7baba1c4bc27f4b0-8" vertex="1">
          <mxGeometry x="50" y="425" width="10" height="45" as="geometry" />
        </mxCell>
        <mxCell id="7baba1c4bc27f4b0-30" value="update jenkins new state" style="html=1;verticalAlign=bottom;endArrow=open;dashed=1;endSize=8;labelBackgroundColor=none;fontFamily=Verdana;fontSize=12;edgeStyle=elbowEdgeStyle;elbow=vertical;strokeColor=#A8201A;fontColor=default;" parent="1" target="7baba1c4bc27f4b0-9" edge="1">
          <mxGeometry relative="1" as="geometry">
            <mxPoint x="-140" y="731" as="targetPoint" />
            <Array as="points">
              <mxPoint x="-540" y="590" />
              <mxPoint x="-580" y="646" />
            </Array>
            <mxPoint x="-360" y="590" as="sourcePoint" />
          </mxGeometry>
        </mxCell>
        <mxCell id="7baba1c4bc27f4b0-11" value="upgrade jenkins" style="html=1;verticalAlign=bottom;endArrow=block;entryX=0;entryY=0;labelBackgroundColor=none;fontFamily=Verdana;fontSize=12;edgeStyle=elbowEdgeStyle;elbow=vertical;strokeColor=#A8201A;fontColor=default;" parent="1" source="7baba1c4bc27f4b0-9" target="7baba1c4bc27f4b0-10" edge="1">
          <mxGeometry relative="1" as="geometry">
            <mxPoint x="-720" y="295" as="sourcePoint" />
            <mxPoint as="offset" />
          </mxGeometry>
        </mxCell>
        <mxCell id="7baba1c4bc27f4b0-14" value="backup" style="html=1;verticalAlign=bottom;endArrow=block;labelBackgroundColor=none;fontFamily=Verdana;fontSize=12;edgeStyle=elbowEdgeStyle;elbow=vertical;strokeColor=#A8201A;fontColor=default;" parent="1" edge="1">
          <mxGeometry relative="1" as="geometry">
            <mxPoint x="-645" y="352" as="sourcePoint" />
            <mxPoint x="-495" y="352" as="targetPoint" />
            <Array as="points">
              <mxPoint x="-570" y="352" />
            </Array>
          </mxGeometry>
        </mxCell>
        <mxCell id="davq9KQGrm66WCmQLP24-1" value="" style="shape=umlActor;verticalLabelPosition=bottom;verticalAlign=top;html=1;outlineConnect=0;strokeColor=#0F8B8D;fontColor=#143642;fillColor=#FAE5C7;" parent="1" vertex="1">
          <mxGeometry x="-970" y="180" width="30" height="60" as="geometry" />
        </mxCell>
        <mxCell id="davq9KQGrm66WCmQLP24-4" value="" style="endArrow=none;dashed=1;html=1;dashPattern=1 3;strokeWidth=2;rounded=0;strokeColor=#006EAF;fontColor=#143642;fillColor=#1ba1e2;" parent="1" source="davq9KQGrm66WCmQLP24-5" target="davq9KQGrm66WCmQLP24-1" edge="1">
          <mxGeometry width="50" height="50" relative="1" as="geometry">
            <mxPoint x="-955" y="765" as="sourcePoint" />
            <mxPoint x="-950" y="355" as="targetPoint" />
          </mxGeometry>
        </mxCell>
        <mxCell id="davq9KQGrm66WCmQLP24-6" value="" style="endArrow=none;dashed=1;html=1;dashPattern=1 3;strokeWidth=2;rounded=0;strokeColor=#006EAF;fontColor=#143642;fillColor=#1ba1e2;" parent="1" target="davq9KQGrm66WCmQLP24-5" edge="1">
          <mxGeometry width="50" height="50" relative="1" as="geometry">
            <mxPoint x="-955" y="765" as="sourcePoint" />
            <mxPoint x="-955" y="235" as="targetPoint" />
          </mxGeometry>
        </mxCell>
        <mxCell id="davq9KQGrm66WCmQLP24-8" style="edgeStyle=orthogonalEdgeStyle;rounded=0;orthogonalLoop=1;jettySize=auto;html=1;strokeColor=#A8201A;fontColor=#143642;fillColor=#FAE5C7;exitX=1.26;exitY=0.048;exitDx=0;exitDy=0;exitPerimeter=0;entryX=-0.04;entryY=0.005;entryDx=0;entryDy=0;entryPerimeter=0;" parent="1" source="davq9KQGrm66WCmQLP24-5" target="7baba1c4bc27f4b0-9" edge="1">
          <mxGeometry relative="1" as="geometry">
            <mxPoint x="-850" y="375" as="targetPoint" />
          </mxGeometry>
        </mxCell>
        <mxCell id="davq9KQGrm66WCmQLP24-5" value="" style="html=1;points=[];perimeter=orthogonalPerimeter;rounded=1;shadow=0;comic=0;labelBackgroundColor=none;strokeWidth=1;fontFamily=Verdana;fontSize=12;align=center;fillColor=#FAE5C7;strokeColor=#0F8B8D;fontColor=#143642;" parent="1" vertex="1">
          <mxGeometry x="-960" y="265" width="10" height="470" as="geometry" />
        </mxCell>
        <mxCell id="davq9KQGrm66WCmQLP24-9" value="select jenkins" style="text;html=1;align=center;verticalAlign=middle;resizable=0;points=[];autosize=1;strokeColor=none;fillColor=none;fontColor=#143642;" parent="1" vertex="1">
          <mxGeometry x="-940" y="263" width="100" height="30" as="geometry" />
        </mxCell>
        <mxCell id="davq9KQGrm66WCmQLP24-10" value="backup/records" style="html=1;verticalAlign=bottom;endArrow=open;dashed=1;endSize=8;exitX=-0.24;exitY=0.722;labelBackgroundColor=none;fontFamily=Verdana;fontSize=12;strokeColor=#A8201A;fontColor=default;exitDx=0;exitDy=0;exitPerimeter=0;entryX=0.86;entryY=0.228;entryDx=0;entryDy=0;entryPerimeter=0;" parent="1" edge="1">
          <mxGeometry relative="1" as="geometry">
            <mxPoint x="-786.4000000000001" y="396.31999999999994" as="targetPoint" />
            <mxPoint x="-657.4000000000001" y="395.4200000000001" as="sourcePoint" />
            <mxPoint as="offset" />
          </mxGeometry>
        </mxCell>
        <mxCell id="davq9KQGrm66WCmQLP24-12" value="confirm" style="html=1;verticalAlign=bottom;endArrow=block;labelBackgroundColor=none;fontFamily=Verdana;fontSize=12;elbow=vertical;edgeStyle=orthogonalEdgeStyle;curved=1;entryX=1;entryY=0.286;entryPerimeter=0;exitX=1.038;exitY=0.345;exitPerimeter=0;strokeColor=#A8201A;fontColor=default;" parent="1" edge="1">
          <mxGeometry relative="1" as="geometry">
            <mxPoint x="-784.6666666666665" y="425" as="sourcePoint" />
            <mxPoint x="-779.6666666666665" y="463.33333333333337" as="targetPoint" />
            <Array as="points">
              <mxPoint x="-730" y="425" />
              <mxPoint x="-730" y="463" />
            </Array>
          </mxGeometry>
        </mxCell>
        <mxCell id="davq9KQGrm66WCmQLP24-14" value="create new jenkins" style="html=1;verticalAlign=bottom;endArrow=block;entryX=0.06;entryY=0.072;labelBackgroundColor=none;fontFamily=Verdana;fontSize=12;strokeColor=#A8201A;fontColor=default;entryDx=0;entryDy=0;entryPerimeter=0;" parent="1" target="davq9KQGrm66WCmQLP24-13" edge="1">
          <mxGeometry relative="1" as="geometry">
            <mxPoint x="-780" y="497" as="sourcePoint" />
            <mxPoint x="-350" y="485" as="targetPoint" />
          </mxGeometry>
        </mxCell>
        <mxCell id="davq9KQGrm66WCmQLP24-32" value="return" style="html=1;verticalAlign=bottom;endArrow=open;dashed=1;endSize=8;labelBackgroundColor=none;fontFamily=Verdana;fontSize=12;strokeColor=#A8201A;fontColor=default;exitX=0.083;exitY=0.87;exitDx=0;exitDy=0;exitPerimeter=0;entryX=0.983;entryY=0.808;entryDx=0;entryDy=0;entryPerimeter=0;" parent="1" edge="1">
          <mxGeometry x="0.0042" y="1" relative="1" as="geometry">
            <mxPoint x="-645.1700000000001" y="391.8800000000001" as="targetPoint" />
            <mxPoint x="-494.1700000000001" y="393.9000000000001" as="sourcePoint" />
            <mxPoint as="offset" />
            <Array as="points" />
          </mxGeometry>
        </mxCell>
        <mxCell id="davq9KQGrm66WCmQLP24-37" value="upload" style="html=1;verticalAlign=bottom;endArrow=block;labelBackgroundColor=none;fontFamily=Verdana;fontSize=12;elbow=vertical;edgeStyle=orthogonalEdgeStyle;curved=1;entryX=1;entryY=0.286;entryPerimeter=0;exitX=1.038;exitY=0.345;exitPerimeter=0;strokeColor=#A8201A;fontColor=default;" parent="1" edge="1">
          <mxGeometry relative="1" as="geometry">
            <mxPoint x="-484.9966666666665" y="337.03" as="sourcePoint" />
            <mxPoint x="-479.9966666666665" y="375.36333333333334" as="targetPoint" />
            <Array as="points">
              <mxPoint x="-430.3299999999999" y="337.03" />
              <mxPoint x="-430.3299999999999" y="375.03" />
            </Array>
          </mxGeometry>
        </mxCell>
        <mxCell id="bYO_PEtmY-TjLPmkm5Tr-3" style="edgeStyle=orthogonalEdgeStyle;rounded=0;orthogonalLoop=1;jettySize=auto;html=1;entryX=-0.017;entryY=0.505;entryDx=0;entryDy=0;entryPerimeter=0;strokeColor=#CC0000;" parent="1" edge="1">
          <mxGeometry relative="1" as="geometry">
            <mxPoint x="-780" y="613.5" as="sourcePoint" />
            <mxPoint x="-215.17000000000007" y="612.875" as="targetPoint" />
          </mxGeometry>
        </mxCell>
        <mxCell id="bYO_PEtmY-TjLPmkm5Tr-4" value="migration verify" style="text;html=1;align=center;verticalAlign=middle;resizable=0;points=[];autosize=1;strokeColor=none;fillColor=none;" parent="1" vertex="1">
          <mxGeometry x="-590" y="590" width="100" height="30" as="geometry" />
        </mxCell>
        <mxCell id="bYO_PEtmY-TjLPmkm5Tr-5" style="edgeStyle=orthogonalEdgeStyle;rounded=0;orthogonalLoop=1;jettySize=auto;html=1;strokeColor=#CC0000;" parent="1" edge="1">
          <mxGeometry relative="1" as="geometry">
            <mxPoint x="-80" y="615" as="targetPoint" />
            <Array as="points">
              <mxPoint x="-100" y="615" />
              <mxPoint x="-100" y="615" />
            </Array>
            <mxPoint x="-205" y="615" as="sourcePoint" />
          </mxGeometry>
        </mxCell>
        <mxCell id="bYO_PEtmY-TjLPmkm5Tr-6" value=":Jenkins old terminate" style="shape=umlLifeline;perimeter=lifelinePerimeter;whiteSpace=wrap;html=1;container=1;collapsible=0;recursiveResize=0;outlineConnect=0;rounded=1;shadow=0;comic=0;labelBackgroundColor=none;strokeWidth=1;fontFamily=Verdana;fontSize=12;align=center;fillColor=#FAE5C7;strokeColor=#0F8B8D;fontColor=#143642;" parent="1" vertex="1">
          <mxGeometry x="20" y="185" width="100" height="580" as="geometry" />
        </mxCell>
        <mxCell id="bYO_PEtmY-TjLPmkm5Tr-7" value="" style="html=1;points=[];perimeter=orthogonalPerimeter;rounded=1;shadow=0;comic=0;labelBackgroundColor=none;strokeColor=#0F8B8D;strokeWidth=1;fillColor=#FAE5C7;fontFamily=Verdana;fontSize=12;fontColor=#143642;align=center;" parent="bYO_PEtmY-TjLPmkm5Tr-6" vertex="1">
          <mxGeometry x="45" y="461" width="10" height="26" as="geometry" />
        </mxCell>
        <mxCell id="bYO_PEtmY-TjLPmkm5Tr-9" style="edgeStyle=orthogonalEdgeStyle;rounded=0;orthogonalLoop=1;jettySize=auto;html=1;entryX=-0.317;entryY=0.497;entryDx=0;entryDy=0;entryPerimeter=0;strokeColor=#CC0000;" parent="1" edge="1">
          <mxGeometry relative="1" as="geometry">
            <mxPoint x="-199" y="665" as="sourcePoint" />
            <mxPoint x="61.82999999999993" y="664.922" as="targetPoint" />
          </mxGeometry>
        </mxCell>
        <mxCell id="bYO_PEtmY-TjLPmkm5Tr-10" value="terminate old jenkins" style="text;html=1;align=center;verticalAlign=middle;resizable=0;points=[];autosize=1;strokeColor=none;fillColor=none;" parent="1" vertex="1">
          <mxGeometry x="-105" y="641" width="130" height="30" as="geometry" />
        </mxCell>
        <mxCell id="bYO_PEtmY-TjLPmkm5Tr-12" value="dns switch" style="text;html=1;align=center;verticalAlign=middle;resizable=0;points=[];autosize=1;strokeColor=none;fillColor=none;" parent="1" vertex="1">
          <mxGeometry x="-184" y="591" width="80" height="30" as="geometry" />
        </mxCell>
        <mxCell id="bYO_PEtmY-TjLPmkm5Tr-13" value="" style="html=1;verticalAlign=bottom;endArrow=block;labelBackgroundColor=none;fontFamily=Verdana;fontSize=12;elbow=vertical;edgeStyle=orthogonalEdgeStyle;curved=1;entryX=1;entryY=0.286;entryPerimeter=0;exitX=1.038;exitY=0.345;exitPerimeter=0;strokeColor=#A8201A;fontColor=default;" parent="1" edge="1">
          <mxGeometry x="-0.2339" y="21" relative="1" as="geometry">
            <mxPoint x="-209.99666666666644" y="623.8299999999999" as="sourcePoint" />
            <mxPoint x="-204.99666666666644" y="662.1633333333333" as="targetPoint" />
            <Array as="points">
              <mxPoint x="-155.32999999999993" y="623.8299999999999" />
              <mxPoint x="-155.32999999999993" y="661.8299999999999" />
            </Array>
            <mxPoint x="-6" y="-14" as="offset" />
          </mxGeometry>
        </mxCell>
        <mxCell id="8oz6WlwGEbHMc_Zp1zbU-2" value="" style="html=1;verticalAlign=bottom;endArrow=block;labelBackgroundColor=none;fontFamily=Verdana;fontSize=12;elbow=vertical;edgeStyle=orthogonalEdgeStyle;curved=1;entryX=1;entryY=0.286;entryPerimeter=0;exitX=1.038;exitY=0.345;exitPerimeter=0;strokeColor=#A8201A;fontColor=default;" edge="1" parent="1">
          <mxGeometry relative="1" as="geometry">
            <mxPoint x="-643.9966666666664" y="306.03" as="sourcePoint" />
            <mxPoint x="-638.9966666666664" y="344.36333333333334" as="targetPoint" />
            <Array as="points">
              <mxPoint x="-589.3299999999999" y="306.03" />
              <mxPoint x="-589.3299999999999" y="344.03" />
            </Array>
          </mxGeometry>
        </mxCell>
        <mxCell id="8oz6WlwGEbHMc_Zp1zbU-3" value="success" style="text;html=1;align=center;verticalAlign=middle;resizable=0;points=[];autosize=1;strokeColor=none;fillColor=none;" vertex="1" parent="1">
          <mxGeometry x="-620" y="290" width="70" height="30" as="geometry" />
        </mxCell>
      </root>
    </mxGraphModel>
  </diagram>
</mxfile>
